{
  "accessors": [
    {
      "bufferView": 1,
      "componentType": 5126,
      "count": 1120,
      "max": [
        0.16978000104427338,
        0.049630001187324524,
        1.5380799770355225
      ],
      "min": [
        -0.046959999948740005,
        -0.1964000016450882,
        1.1060400009155273
      ],
      "type": "VEC3"
    },
    {
      "bufferView": 1,
      "byteOffset": 13440,
      "componentType": 5126,
      "count": 1120,
      "max": [
        0.99997144937515259,
        0.99997121095657349,
        0.99999195337295532
      ],
      "min": [
        -0.99997133016586304,
        -0.99997121095657349,
        -0.37040424346923828
      ],
      "type": "VEC3"
    },
    {
      "bufferView": 2,
      "componentType": 5126,
      "count": 1120,
      "max": [
        1,
        0.99007022380828857,
        0.96299088001251221,
        1
      ],
      "min": [
        -0.99999988079071045,
        -0.98998236656188965,
        -0.99775165319442749,
        -1
      ],
      "type": "VEC4"
    },
    {
      "bufferView": 0,
      "componentType": 5125,
      "count": 3264,
      "max": [
        1119
      ],
      "min": [
        0
      ],
      "type": "SCALAR"
    },
    {
      "bufferView": 1,
      "byteOffset": 26880,
      "componentType": 5126,
      "count": 2186,
      "max": [
        0.20000000298023224,
        0.18732999265193939,
        1.3842400312423706
      ],
      "min": [
        -0.20000000298023224,
        -0.21266999840736389,
        0
      ],
      "type": "VEC3"
    },
    {
      "bufferView": 1,
      "byteOffset": 53112,
      "componentType": 5126,
      "count": 2186,
      "max": [
        0.99997448921203613,
        0.9999992847442627,
        1
      ],
      "min": [
        -0.99997413158416748,
        -0.9999992847442627,
        -1
      ],
      "type": "VEC3"
    },
    {
      "bufferView": 2,
      "byteOffset": 17920,
      "componentType": 5126,
      "count": 2186,
      "max": [
        0.99980199337005615,
        0.99941384792327881,
        0.99301785230636597,
        1
      ],
      "min": [
        -0.99974417686462402,
        -0.99937188625335693,
        -0.41736876964569092,
        1
      ],
      "type": "VEC4"
    },
    {
      "bufferView": 0,
      "byteOffset": 13056,
      "componentType": 5125,
      "count": 8634,
      "max": [
        2185
      ],
      "min": [
        0
      ],
      "type": "SCALAR"
    },
    {
      "bufferView": 1,
      "byteOffset": 79344,
      "componentType": 5126,
      "count": 1984,
      "max": [
        1,
        1,
        1
      ],
      "min": [
        -1,
        -1,
        -1
      ],
      "type": "VEC3"
    },
    {
      "bufferView": 1,
      "byteOffset": 103152,
      "componentType": 5126,
      "count": 1984,
      "max": [
        0.99043834209442139,
        0.99043834209442139,
        0.99513870477676392
      ],
      "min": [
        -0.99043834209442139,
        -0.99043834209442139,
        -0.99513870477676392
      ],
      "type": "VEC3"
    },
    {
      "bufferView": 0,
      "byteOffset": 47592,
      "componentType": 5125,
      "count": 2880,
      "max": [
        1983
      ],
      "min": [
        0
      ],
      "type": "SCALAR"
    },
    {
      "bufferView": 1,
      "byteOffset": 126960,
      "componentType": 5126,
      "count": 1984,
      "max": [
        1,
        1,
        1
      ],
      "min": [
        -1,
        -1,
        -1
      ],
      "type": "VEC3"
    },
    {
      "bufferView": 1,
      "byteOffset": 150768,
      "componentType": 5126,
      "count": 1984,
      "max": [
        0.99043834209442139,
        0.99043834209442139,
        0.99513870477676392
      ],
      "min": [
        -0.99043834209442139,
        -0.99043834209442139,
        -0.99513870477676392
      ],
      "type": "VEC3"
    },
    {
      "bufferView": 0,
      "byteOffset": 59112,
      "componentType": 5125,
      "count": 2880,
      "max": [
        1983
      ],
      "min": [
        0
      ],
      "type": "SCALAR"
    },
    {
      "bufferView": 1,
      "byteOffset": 174576,
      "componentType": 5126,
      "count": 1984,
      "max": [
        1,
        1,
        1
      ],
      "min": [
        -1,
        -1,
        -1
      ],
      "type": "VEC3"
    },
    {
      "bufferView": 1,
      "byteOffset": 198384,
      "componentType": 5126,
      "count": 1984,
      "max": [
        0.99043834209442139,
        0.99043834209442139,
        0.99513870477676392
      ],
      "min": [
        -0.99043834209442139,
        -0.99043834209442139,
        -0.99513870477676392
      ],
      "type": "VEC3"
    },
    {
      "bufferView": 0,
      "byteOffset": 70632,
      "componentType": 5125,
      "count": 2880,
      "max": [
        1983
      ],
      "min": [
        0
      ],
      "type": "SCALAR"
    }
  ],
  "asset": {
    "extras": {
      "author": "r.hessens (https://sketchfab.com/r.hessens)",
      "license": "CC-BY-4.0 (http://creativecommons.org/licenses/by/4.0/)",
      "source": "https://sketchfab.com/models/26f82e7ee59c444b9433a2458dc9451f",
      "title": "Modern Lamp"
    },
    "generator": "Sketchfab-3.18.6",
    "version": "2.0"
  },
  "bufferViews": [
    {
      "buffer": 0,
      "byteLength": 82152,
      "byteOffset": 0,
      "name": "floatBufferViews",
      "target": 34963
    },
    {
      "buffer": 0,
      "byteLength": 222192,
      "byteOffset": 82152,
      "byteStride": 12,
      "name": "floatBufferViews",
      "target": 34962
    },
    {
      "buffer": 0,
      "byteLength": 52896,
      "byteOffset": 304344,
      "byteStride": 16,
      "name": "floatBufferViews",
      "target": 34962
    }
  ],
  "buffers": [
    {
      "byteLength": 357240,
      "uri": "scene.bin"
    }
  ],
  "materials": [
    {
      "doubleSided": true,
      "emissiveFactor": [
        1,
        1,
        1
      ],
      "name": "BULB",
      "pbrMetallicRoughness": {
        "baseColorFactor": [
          0.87681250570000002,
          0.87681250570000002,
          0.87681250570000002,
          1
        ],
        "metallicFactor": 0.020562505700000001,
        "roughnessFactor": 0.59999999999999998
      }
    },
    {
      "alphaMode": "BLEND",
      "doubleSided": true,
      "emissiveFactor": [
        1,
        1,
        1
      ],
      "name": "Light",
      "pbrMetallicRoughness": {
        "baseColorFactor": [
          1,
          1,
          1,
          0.098187494299999997
        ],
        "metallicFactor": 1,
        "roughnessFactor": 0.3044374943
      }
    },
    {
      "doubleSided": true,
      "name": "Material.001",
      "pbrMetallicRoughness": {
        "baseColorFactor": [
          0,
          0,
          0,
          1
        ],
        "metallicFactor": 0.51431250569999998,
        "roughnessFactor": 0.1481874943
      }
    }
  ],
  "meshes": [
    {
      "name": "Cylinder.002_0",
      "primitives": [
        {
          "attributes": {
            "NORMAL": 1,
            "POSITION": 0,
            "TANGENT": 2
          },
          "indices": 3,
          "material": 1,
          "mode": 4
        }
      ]
    },
    {
      "name": "Cylinder.002_1",
      "primitives": [
        {
          "attributes": {
            "NORMAL": 5,
            "POSITION": 4,
            "TANGENT": 6
          },
          "indices": 7,
          "material": 2,
          "mode": 4
        }
      ]
    },
    {
      "name": "Sphere.002_0",
      "primitives": [
        {
          "attributes": {
            "NORMAL": 9,
            "POSITION": 8
          },
          "indices": 10,
          "material": 0,
          "mode": 4
        }
      ]
    },
    {
      "name": "Sphere.002_0",
      "primitives": [
        {
          "attributes": {
            "NORMAL": 12,
            "POSITION": 11
          },
          "indices": 13,
          "material": 0,
          "mode": 4
        }
      ]
    },
    {
      "name": "Sphere.002_0",
      "primitives": [
        {
          "attributes": {
            "NORMAL": 15,
            "POSITION": 14
          },
          "indices": 16,
          "material": 0,
          "mode": 4
        }
      ]
    }
  ],
  "nodes": [
    {
      "children": [
        1
      ],
      "name": "RootNode (gltf orientation matrix)",
      "rotation": [
        -0.70710678118654746,
        -0,
        -0,
        0.70710678118654757
      ]
    },
    {
      "children": [
        2
      ],
      "name": "RootNode (model correction matrix)"
    },
    {
      "children": [
        3,
        6,
        8,
        10
      ],
      "name": "Root"
    },
    {
      "children": [
        4,
        5
      ],
      "matrix": [
        1,
        0,
        0,
        0,
        0,
        1,
        0,
        0,
        0,
        0,
        1,
        0,
        0,
        0.012670000000000002,
        0,
        1
      ],
      "name": "Cylinder.002"
    },
    {
      "mesh": 0,
      "name": "Cylinder.002_0"
    },
    {
      "mesh": 1,
      "name": "Cylinder.002_1"
    },
    {
      "children": [
        7
      ],
      "matrix": [
        0.014190000000000001,
        0,
        0,
        0,
        0,
        0.014190000000000001,
        0,
        0,
        0,
        0,
        0.014190000000000001,
        0,
        0.10637000000000001,
        0.0016100000000000003,
        1.1473199999999999,
        1
      ],
      "name": "Sphere"
    },
    {
      "mesh": 2,
      "name": "Sphere.002_0"
    },
    {
      "children": [
        9
      ],
      "matrix": [
        0.014190000000000001,
        0,
        0,
        0,
        0,
        0.014190000000000001,
        0,
        0,
        0,
        0,
        0.014190000000000001,
        0,
        -0.011220000000000003,
        -0.11980000000000002,
        1.1473199999999999,
        1
      ],
      "name": "Sphere.001"
    },
    {
      "mesh": 3,
      "name": "Sphere.002_0"
    },
    {
      "children": [
        11
      ],
      "matrix": [
        0.014190000000000001,
        0,
        0,
        0,
        0,
        0.014190000000000001,
        0,
        0,
        0,
        0,
        0.014190000000000001,
        0,
        0.00014000000000000004,
        0.028440000000000003,
        1.4149499999999999,
        1
      ],
      "name": "Sphere.002"
    },
    {
      "mesh": 4,
      "name": "Sphere.002_0"
    }
  ],
  "scene": 0,
  "scenes": [
    {
      "name": "OSG_Scene",
      "nodes": [
        0
      ]
    }
  ]
}

