{
  "accessors": [
    {
      "bufferView": 1,
      "componentType": 5126,
      "count": 9540,
      "max": [
        23.96929931640625,
        22.732099533081055,
        79.143402099609375
      ],
      "min": [
        -23.261100769042969,
        -22.732099533081055,
        36.890598297119141
      ],
      "type": "VEC3"
    },
    {
      "bufferView": 1,
      "byteOffset": 114480,
      "componentType": 5126,
      "count": 9540,
      "max": [
        0.98973637819290161,
        0.99333059787750244,
        0.99999666213989258
      ],
      "min": [
        -0.99410861730575562,
        -0.99328631162643433,
        -0.99999821186065674
      ],
      "type": "VEC3"
    },
    {
      "bufferView": 2,
      "componentType": 5126,
      "count": 9540,
      "max": [
        0.99596017599105835,
        0.99999845027923584,
        0.98108130693435669,
        1
      ],
      "min": [
        -0.99998754262924194,
        -0.99999940395355225,
        -0.98713243007659912,
        -1
      ],
      "type": "VEC4"
    },
    {
      "bufferView": 0,
      "componentType": 5125,
      "count": 55296,
      "max": [
        9539
      ],
      "min": [
        0
      ],
      "type": "SCALAR"
    },
    {
      "bufferView": 1,
      "byteOffset": 228960,
      "componentType": 5126,
      "count": 2156,
      "max": [
        21.316600799560547,
        23.499500274658203,
        40.908599853515625
      ],
      "min": [
        -23.273599624633789,
        -23.499500274658203,
        0.085100002586841583
      ],
      "type": "VEC3"
    },
    {
      "bufferView": 1,
      "byteOffset": 254832,
      "componentType": 5126,
      "count": 2156,
      "max": [
        0.99900251626968384,
        0.99866920709609985,
        0.99999260902404785
      ],
      "min": [
        -0.99898606538772583,
        -0.99866920709609985,
        -0.99999260902404785
      ],
      "type": "VEC3"
    },
    {
      "bufferView": 2,
      "byteOffset": 152640,
      "componentType": 5126,
      "count": 2156,
      "max": [
        0,
        0,
        0,
        1
      ],
      "min": [
        0,
        0,
        0,
        1
      ],
      "type": "VEC4"
    },
    {
      "bufferView": 0,
      "byteOffset": 221184,
      "componentType": 5125,
      "count": 12936,
      "max": [
        2155
      ],
      "min": [
        0
      ],
      "type": "SCALAR"
    }
  ],
  "asset": {
    "extras": {
      "author": "Kostas Kyrsanidis (https://sketchfab.com/3Dreamer)",
      "license": "CC-BY-4.0 (http://creativecommons.org/licenses/by/4.0/)",
      "source": "https://sketchfab.com/models/eac019bcd72642fd94b0f366a0560673",
      "title": "Tobias Chair Ikea"
    },
    "generator": "Sketchfab-3.18.2",
    "version": "2.0"
  },
  "bufferViews": [
    {
      "buffer": 0,
      "byteLength": 272928,
      "byteOffset": 0,
      "name": "floatBufferViews",
      "target": 34963
    },
    {
      "buffer": 0,
      "byteLength": 280704,
      "byteOffset": 272928,
      "byteStride": 12,
      "name": "floatBufferViews",
      "target": 34962
    },
    {
      "buffer": 0,
      "byteLength": 187136,
      "byteOffset": 553632,
      "byteStride": 16,
      "name": "floatBufferViews",
      "target": 34962
    }
  ],
  "buffers": [
    {
      "byteLength": 740768,
      "uri": "scene.bin"
    }
  ],
  "materials": [
    {
      "doubleSided": true,
      "emissiveFactor": [
        0,
        0,
        0
      ],
      "name": "wire_006135006",
      "pbrMetallicRoughness": {
        "baseColorFactor": [
          0.5,
          0.5,
          0.5,
          1
        ],
        "metallicFactor": 0,
        "roughnessFactor": 0.59999999999999998
      }
    },
    {
      "doubleSided": true,
      "emissiveFactor": [
        0,
        0,
        0
      ],
      "name": "wire_006135113",
      "pbrMetallicRoughness": {
        "baseColorFactor": [
          0.5,
          0.5,
          0.5,
          1
        ],
        "metallicFactor": 0,
        "roughnessFactor": 0.59999999999999998
      }
    }
  ],
  "meshes": [
    {
      "primitives": [
        {
          "attributes": {
            "NORMAL": 1,
            "POSITION": 0,
            "TANGENT": 2
          },
          "indices": 3,
          "material": 1,
          "mode": 4
        }
      ]
    },
    {
      "primitives": [
        {
          "attributes": {
            "NORMAL": 5,
            "POSITION": 4,
            "TANGENT": 6
          },
          "indices": 7,
          "material": 0,
          "mode": 4
        }
      ]
    }
  ],
  "nodes": [
    {
      "children": [
        1
      ],
      "name": "RootNode (gltf orientation matrix)",
      "rotation": [
        -0.70710678118654746,
        -0,
        -0,
        0.70710678118654757
      ]
    },
    {
      "children": [
        2
      ],
      "name": "RootNode (model correction matrix)"
    },
    {
      "children": [
        3,
        4
      ],
      "name": "11ac2d4ec05a45aca58735faa3c14c42.obj.cleaner"
    },
    {
      "mesh": 0,
      "name": ""
    },
    {
      "mesh": 1,
      "name": ""
    }
  ],
  "scene": 0,
  "scenes": [
    {
      "name": "OSG_Scene",
      "nodes": [
        0
      ]
    }
  ]
}

