{
  "accessors": [
    {
      "bufferView": 2,
      "componentType": 5126,
      "count": 4928,
      "max": [
        533.4000244140625,
        533.4000244140625,
        10
      ],
      "min": [
        -533.4000244140625,
        -533.4000244140625,
        -8.8160409927368164
      ],
      "type": "VEC3"
    },
    {
      "bufferView": 2,
      "byteOffset": 59136,
      "componentType": 5126,
      "count": 4928,
      "max": [
        0.9996039867401123,
        0.99960392713546753,
        0.99943357706069946
      ],
      "min": [
        -0.99960392713546753,
        -0.99960392713546753,
        -0.99987947940826416
      ],
      "type": "VEC3"
    },
    {
      "bufferView": 3,
      "componentType": 5126,
      "count": 4928,
      "max": [
        0.77081990242004395,
        1,
        0.9996039867401123,
        1
      ],
      "min": [
        -0.74901276826858521,
        -1,
        -0.9996039867401123,
        1
      ],
      "type": "VEC4"
    },
    {
      "bufferView": 1,
      "componentType": 5126,
      "count": 4928,
      "max": [
        0.85523831844329834,
        0.85523831844329834
      ],
      "min": [
        0.14476168155670166,
        0.14476171135902405
      ],
      "type": "VEC2"
    },
    {
      "bufferView": 0,
      "componentType": 5125,
      "count": 27204,
      "max": [
        4927
      ],
      "min": [
        0
      ],
      "type": "SCALAR"
    },
    {
      "bufferView": 2,
      "byteOffset": 118272,
      "componentType": 5126,
      "count": 1338,
      "max": [
        -285.66400146484375,
        35.078514099121094,
        755.3153076171875
      ],
      "min": [
        -359.28958129882812,
        -31.910434722900391,
        -105.41790771484375
      ],
      "type": "VEC3"
    },
    {
      "bufferView": 2,
      "byteOffset": 134328,
      "componentType": 5126,
      "count": 1338,
      "max": [
        0.99999874830245972,
        0.9999997615814209,
        1
      ],
      "min": [
        -0.9999997615814209,
        -0.99999970197677612,
        -1
      ],
      "type": "VEC3"
    },
    {
      "bufferView": 3,
      "byteOffset": 78848,
      "componentType": 5126,
      "count": 1338,
      "max": [
        0.75026106834411621,
        1,
        1,
        1
      ],
      "min": [
        -0.73953181505203247,
        -1,
        -1,
        1
      ],
      "type": "VEC4"
    },
    {
      "bufferView": 1,
      "byteOffset": 39424,
      "componentType": 5126,
      "count": 1338,
      "max": [
        0.97416937351226807,
        0.53113603591918945
      ],
      "min": [
        0.025830566883087158,
        0.47037160396575928
      ],
      "type": "VEC2"
    },
    {
      "bufferView": 0,
      "byteOffset": 108816,
      "componentType": 5125,
      "count": 6912,
      "max": [
        1337
      ],
      "min": [
        0
      ],
      "type": "SCALAR"
    },
    {
      "bufferView": 2,
      "byteOffset": 150384,
      "componentType": 5126,
      "count": 1338,
      "max": [
        -285.66400146484375,
        35.078514099121094,
        755.3153076171875
      ],
      "min": [
        -359.28958129882812,
        -31.910434722900391,
        -105.41790771484375
      ],
      "type": "VEC3"
    },
    {
      "bufferView": 2,
      "byteOffset": 166440,
      "componentType": 5126,
      "count": 1338,
      "max": [
        0.99999874830245972,
        0.9999997615814209,
        1
      ],
      "min": [
        -0.9999997615814209,
        -0.99999970197677612,
        -1
      ],
      "type": "VEC3"
    },
    {
      "bufferView": 3,
      "byteOffset": 100256,
      "componentType": 5126,
      "count": 1338,
      "max": [
        0.75026106834411621,
        1,
        1,
        1
      ],
      "min": [
        -0.73953181505203247,
        -1,
        -1,
        1
      ],
      "type": "VEC4"
    },
    {
      "bufferView": 1,
      "byteOffset": 50128,
      "componentType": 5126,
      "count": 1338,
      "max": [
        0.97416937351226807,
        0.53113603591918945
      ],
      "min": [
        0.025830566883087158,
        0.47037160396575928
      ],
      "type": "VEC2"
    },
    {
      "bufferView": 0,
      "byteOffset": 136464,
      "componentType": 5125,
      "count": 6912,
      "max": [
        1337
      ],
      "min": [
        0
      ],
      "type": "SCALAR"
    },
    {
      "bufferView": 2,
      "byteOffset": 182496,
      "componentType": 5126,
      "count": 1338,
      "max": [
        -285.66400146484375,
        35.078514099121094,
        755.3153076171875
      ],
      "min": [
        -359.28958129882812,
        -31.910434722900391,
        -105.41790771484375
      ],
      "type": "VEC3"
    },
    {
      "bufferView": 2,
      "byteOffset": 198552,
      "componentType": 5126,
      "count": 1338,
      "max": [
        0.99999874830245972,
        0.9999997615814209,
        1
      ],
      "min": [
        -0.9999997615814209,
        -0.99999970197677612,
        -1
      ],
      "type": "VEC3"
    },
    {
      "bufferView": 3,
      "byteOffset": 121664,
      "componentType": 5126,
      "count": 1338,
      "max": [
        0.75026106834411621,
        1,
        1,
        1
      ],
      "min": [
        -0.73953181505203247,
        -1,
        -1,
        1
      ],
      "type": "VEC4"
    },
    {
      "bufferView": 1,
      "byteOffset": 60832,
      "componentType": 5126,
      "count": 1338,
      "max": [
        0.97416937351226807,
        0.53113603591918945
      ],
      "min": [
        0.025830566883087158,
        0.47037160396575928
      ],
      "type": "VEC2"
    },
    {
      "bufferView": 0,
      "byteOffset": 164112,
      "componentType": 5125,
      "count": 6912,
      "max": [
        1337
      ],
      "min": [
        0
      ],
      "type": "SCALAR"
    },
    {
      "bufferView": 2,
      "byteOffset": 214608,
      "componentType": 5126,
      "count": 1338,
      "max": [
        -285.66400146484375,
        35.078514099121094,
        755.3153076171875
      ],
      "min": [
        -359.28958129882812,
        -31.910434722900391,
        -105.41790771484375
      ],
      "type": "VEC3"
    },
    {
      "bufferView": 2,
      "byteOffset": 230664,
      "componentType": 5126,
      "count": 1338,
      "max": [
        0.99999874830245972,
        0.9999997615814209,
        1
      ],
      "min": [
        -0.9999997615814209,
        -0.99999970197677612,
        -1
      ],
      "type": "VEC3"
    },
    {
      "bufferView": 3,
      "byteOffset": 143072,
      "componentType": 5126,
      "count": 1338,
      "max": [
        0.75026106834411621,
        1,
        1,
        1
      ],
      "min": [
        -0.73953181505203247,
        -1,
        -1,
        1
      ],
      "type": "VEC4"
    },
    {
      "bufferView": 1,
      "byteOffset": 71536,
      "componentType": 5126,
      "count": 1338,
      "max": [
        0.97416937351226807,
        0.53113603591918945
      ],
      "min": [
        0.025830566883087158,
        0.47037160396575928
      ],
      "type": "VEC2"
    },
    {
      "bufferView": 0,
      "byteOffset": 191760,
      "componentType": 5125,
      "count": 6912,
      "max": [
        1337
      ],
      "min": [
        0
      ],
      "type": "SCALAR"
    }
  ],
  "asset": {
    "extras": {
      "author": "Zuo Modern (https://sketchfab.com/zuo)",
      "license": "CC-BY-NC-ND-4.0 (http://creativecommons.org/licenses/by-nc-nd/4.0/)",
      "source": "https://sketchfab.com/models/c8bb1dc7e507446e83a66f7e8f76df13",
      "title": "Grapeland Heights Dining Table Walnut - 100094"
    },
    "generator": "Sketchfab-3.20.7",
    "version": "2.0"
  },
  "bufferViews": [
    {
      "buffer": 0,
      "byteLength": 219408,
      "byteOffset": 0,
      "name": "floatBufferViews",
      "target": 34963
    },
    {
      "buffer": 0,
      "byteLength": 82240,
      "byteOffset": 219408,
      "byteStride": 8,
      "name": "floatBufferViews",
      "target": 34962
    },
    {
      "buffer": 0,
      "byteLength": 246720,
      "byteOffset": 301648,
      "byteStride": 12,
      "name": "floatBufferViews",
      "target": 34962
    },
    {
      "buffer": 0,
      "byteLength": 164480,
      "byteOffset": 548368,
      "byteStride": 16,
      "name": "floatBufferViews",
      "target": 34962
    }
  ],
  "buffers": [
    {
      "byteLength": 712848,
      "uri": "scene.bin"
    }
  ],
  "images": [
    {
      "uri": "textures/Wall_Paint_DarkGray_baseColor.jpeg"
    },
    {
      "uri": "textures/02_-_Default_baseColor.jpeg"
    },
    {
      "uri": "textures/02_-_Default_metallicRoughness.png"
    }
  ],
  "materials": [
    {
      "doubleSided": true,
      "emissiveFactor": [
        0,
        0,
        0
      ],
      "name": "Wall_Paint_DarkGray",
      "pbrMetallicRoughness": {
        "baseColorFactor": [
          1,
          1,
          1,
          1
        ],
        "baseColorTexture": {
          "index": 0,
          "texCoord": 0
        },
        "metallicFactor": 0,
        "roughnessFactor": 0.53134527440000001
      }
    },
    {
      "doubleSided": true,
      "emissiveFactor": [
        0,
        0,
        0
      ],
      "name": "02_-_Default",
      "pbrMetallicRoughness": {
        "baseColorFactor": [
          1,
          1,
          1,
          1
        ],
        "baseColorTexture": {
          "index": 1,
          "texCoord": 0
        },
        "metallicFactor": 0,
        "metallicRoughnessTexture": {
          "index": 2,
          "texCoord": 0
        },
        "roughnessFactor": 1
      }
    }
  ],
  "meshes": [
    {
      "name": "Circle001_Wall Paint DarkGray_0",
      "primitives": [
        {
          "attributes": {
            "NORMAL": 1,
            "POSITION": 0,
            "TANGENT": 2,
            "TEXCOORD_0": 3
          },
          "indices": 4,
          "material": 0,
          "mode": 4
        }
      ]
    },
    {
      "name": "Rectangle007_02 - Default_0",
      "primitives": [
        {
          "attributes": {
            "NORMAL": 6,
            "POSITION": 5,
            "TANGENT": 7,
            "TEXCOORD_0": 8
          },
          "indices": 9,
          "material": 1,
          "mode": 4
        }
      ]
    },
    {
      "name": "Rectangle008_02 - Default_0",
      "primitives": [
        {
          "attributes": {
            "NORMAL": 11,
            "POSITION": 10,
            "TANGENT": 12,
            "TEXCOORD_0": 13
          },
          "indices": 14,
          "material": 1,
          "mode": 4
        }
      ]
    },
    {
      "name": "Rectangle004_02 - Default_0",
      "primitives": [
        {
          "attributes": {
            "NORMAL": 16,
            "POSITION": 15,
            "TANGENT": 17,
            "TEXCOORD_0": 18
          },
          "indices": 19,
          "material": 1,
          "mode": 4
        }
      ]
    },
    {
      "name": "Rectangle009_02 - Default_0",
      "primitives": [
        {
          "attributes": {
            "NORMAL": 21,
            "POSITION": 20,
            "TANGENT": 22,
            "TEXCOORD_0": 23
          },
          "indices": 24,
          "material": 1,
          "mode": 4
        }
      ]
    }
  ],
  "nodes": [
    {
      "children": [
        1
      ],
      "name": "RootNode (gltf orientation matrix)",
      "rotation": [
        -0.70710678118654746,
        -0,
        -0,
        0.70710678118654757
      ]
    },
    {
      "children": [
        2
      ],
      "name": "RootNode (model correction matrix)"
    },
    {
      "children": [
        3
      ],
      "matrix": [
        1,
        0,
        0,
        0,
        0,
        0,
        1,
        0,
        0,
        -1,
        0,
        0,
        0,
        0,
        0,
        1
      ],
      "name": "5eb5dbc5e09f46b58702f5aded45d2d7.fbx"
    },
    {
      "children": [
        4
      ],
      "name": "RootNode"
    },
    {
      "children": [
        5,
        7,
        9,
        11,
        13
      ],
      "matrix": [
        0.93969266213528035,
        0,
        -0.34202002971918155,
        0,
        -0.34202002971918155,
        0,
        -0.93969266213528047,
        0,
        0,
        1,
        0,
        0,
        327.00860595703125,
        379.803466796875,
        278.23629760742188,
        1
      ],
      "name": "100094"
    },
    {
      "children": [
        6
      ],
      "matrix": [
        1,
        0,
        0,
        0,
        0,
        1,
        0,
        0,
        0,
        0,
        1,
        0,
        -7.62939453125e-05,
        -1.1368683772161603e-13,
        369.6566162109375,
        1
      ],
      "name": "Circle001"
    },
    {
      "mesh": 0,
      "name": "Circle001_Wall Paint DarkGray_0"
    },
    {
      "children": [
        8
      ],
      "matrix": [
        0.86602537408896318,
        -5.5511151231257864e-17,
        -0.50000005143406878,
        0,
        6.4098758410692273e-17,
        1,
        -3.0814879110195774e-33,
        0,
        0.50000005143406878,
        -3.2049382502206085e-17,
        0.86602537408896318,
        0,
        -148.41548156738281,
        -3.0517578125e-05,
        -458.683349609375,
        1
      ],
      "name": "Rectangle007"
    },
    {
      "mesh": 1,
      "name": "Rectangle007_02 - Default_0"
    },
    {
      "children": [
        10
      ],
      "matrix": [
        -0.86602524104832812,
        6.6174449004242214e-24,
        -0.50000028186710577,
        -0,
        4.3711410102993765e-08,
        0.99999999999999623,
        -7.5710326261513917e-08,
        -0,
        -0.50000028186710377,
        8.7422770922780696e-08,
        0.8660252410483249,
        -0,
        140.38421630859375,
        0,
        -458.683349609375,
        1
      ],
      "name": "Rectangle008"
    },
    {
      "mesh": 2,
      "name": "Rectangle008_02 - Default_0"
    },
    {
      "children": [
        12
      ],
      "matrix": [
        1.4901161482505643e-07,
        -0.86602522614713995,
        -0.50000030767667847,
        -0,
        -0.9999999999999869,
        -9.6565883067611935e-08,
        -1.3076616756091397e-07,
        -0,
        -6.4963828538822099e-08,
        -0.50000030767669135,
        0.86602522614714283,
        -0,
        -2.4315948486328125,
        145.98390197753906,
        -458.683349609375,
        1
      ],
      "name": "Rectangle004"
    },
    {
      "mesh": 3,
      "name": "Rectangle004_02 - Default_0"
    },
    {
      "children": [
        14
      ],
      "matrix": [
        -1.4901161415892261e-07,
        0.86602539989852301,
        -0.50000000673058143,
        0,
        -0.99999999999998535,
        -1.7206379165912722e-07,
        5.5511151231257827e-17,
        0,
        -8.6031896939786634e-08,
        0.5000000067305741,
        0.86602539989853566,
        0,
        -2.431610107421875,
        -142.8157958984375,
        -458.683349609375,
        1
      ],
      "name": "Rectangle009"
    },
    {
      "mesh": 4,
      "name": "Rectangle009_02 - Default_0"
    }
  ],
  "samplers": [
    {
      "magFilter": 9729,
      "minFilter": 9987,
      "wrapS": 10497,
      "wrapT": 10497
    }
  ],
  "scene": 0,
  "scenes": [
    {
      "name": "OSG_Scene",
      "nodes": [
        0
      ]
    }
  ],
  "textures": [
    {
      "sampler": 0,
      "source": 0
    },
    {
      "sampler": 0,
      "source": 1
    },
    {
      "sampler": 0,
      "source": 2
    }
  ]
}
