{
  "accessors": [
    {
      "bufferView": 2,
      "componentType": 5126,
      "count": 3596,
      "max": [
        8562.974609375,
        6210.361328125,
        4204.39990234375
      ],
      "min": [
        1691.3046875,
        637.12890625,
        1478.514892578125
      ],
      "type": "VEC3"
    },
    {
      "bufferView": 2,
      "byteOffset": 43152,
      "componentType": 5126,
      "count": 3596,
      "max": [
        0.9999656081199646,
        1,
        1
      ],
      "min": [
        -0.9999656081199646,
        -1,
        -1
      ],
      "type": "VEC3"
    },
    {
      "bufferView": 1,
      "componentType": 5126,
      "count": 3596,
      "max": [
        0,
        0
      ],
      "min": [
        0,
        0
      ],
      "type": "VEC2"
    },
    {
      "bufferView": 0,
      "componentType": 5125,
      "count": 15648,
      "max": [
        3595
      ],
      "min": [
        0
      ],
      "type": "SCALAR"
    },
    {
      "bufferView": 2,
      "byteOffset": 86304,
      "componentType": 5126,
      "count": 864,
      "max": [
        8562.974609375,
        6210.361328125,
        2374.35302734375
      ],
      "min": [
        8391.408203125,
        6124.5751953125,
        1465.690673828125
      ],
      "type": "VEC3"
    },
    {
      "bufferView": 2,
      "byteOffset": 96672,
      "componentType": 5126,
      "count": 864,
      "max": [
        0.9999656081199646,
        1,
        0.9994887113571167
      ],
      "min": [
        -0.9999656081199646,
        -1,
        -0.9988207221031189
      ],
      "type": "VEC3"
    },
    {
      "bufferView": 1,
      "byteOffset": 28768,
      "componentType": 5126,
      "count": 864,
      "max": [
        0,
        0
      ],
      "min": [
        0,
        0
      ],
      "type": "VEC2"
    },
    {
      "bufferView": 0,
      "byteOffset": 62592,
      "componentType": 5125,
      "count": 4680,
      "max": [
        863
      ],
      "min": [
        0
      ],
      "type": "SCALAR"
    },
    {
      "bufferView": 2,
      "byteOffset": 107040,
      "componentType": 5126,
      "count": 356,
      "max": [
        10888.98046875,
        6837.044921875,
        4124.3251953125
      ],
      "min": [
        0,
        0,
        0
      ],
      "type": "VEC3"
    },
    {
      "bufferView": 2,
      "byteOffset": 111312,
      "componentType": 5126,
      "count": 356,
      "max": [
        1,
        1,
        1
      ],
      "min": [
        -1,
        -1,
        -1
      ],
      "type": "VEC3"
    },
    {
      "bufferView": 3,
      "componentType": 5126,
      "count": 356,
      "max": [
        1,
        1,
        0.8262975811958313,
        1
      ],
      "min": [
        -1,
        -1,
        -0.87822937965393066,
        -1
      ],
      "type": "VEC4"
    },
    {
      "bufferView": 1,
      "byteOffset": 35680,
      "componentType": 5126,
      "count": 356,
      "max": [
        2.1210899353027344,
        2.1315100193023682
      ],
      "min": [
        -2.1210939884185791,
        -0.22227999567985535
      ],
      "type": "VEC2"
    },
    {
      "bufferView": 0,
      "byteOffset": 81312,
      "componentType": 5125,
      "count": 840,
      "max": [
        355
      ],
      "min": [
        0
      ],
      "type": "SCALAR"
    }
  ],
  "asset": {
    "extras": {
      "author": "bluecato (https://sketchfab.com/bluecato)",
      "license": "CC-BY-4.0 (http://creativecommons.org/licenses/by/4.0/)",
      "source": "https://sketchfab.com/models/61888a656ec04c26915e36e787be4fd3",
      "title": "Office Desk"
    },
    "generator": "Sketchfab-3.20.7",
    "version": "2.0"
  },
  "bufferViews": [
    {
      "buffer": 0,
      "byteLength": 84672,
      "byteOffset": 0,
      "name": "floatBufferViews",
      "target": 34963
    },
    {
      "buffer": 0,
      "byteLength": 38528,
      "byteOffset": 84672,
      "byteStride": 8,
      "name": "floatBufferViews",
      "target": 34962
    },
    {
      "buffer": 0,
      "byteLength": 115584,
      "byteOffset": 123200,
      "byteStride": 12,
      "name": "floatBufferViews",
      "target": 34962
    },
    {
      "buffer": 0,
      "byteLength": 5696,
      "byteOffset": 238784,
      "byteStride": 16,
      "name": "floatBufferViews",
      "target": 34962
    }
  ],
  "buffers": [
    {
      "byteLength": 244480,
      "uri": "scene.bin"
    }
  ],
  "images": [
    {
      "uri": "textures/Scene_-_Root_baseColor.jpg"
    }
  ],
  "materials": [
    {
      "doubleSided": true,
      "emissiveFactor": [
        0,
        0,
        0
      ],
      "name": "Scene_-_Root",
      "pbrMetallicRoughness": {
        "baseColorFactor": [
          1,
          1,
          1,
          1
        ],
        "baseColorTexture": {
          "index": 0,
          "texCoord": 0
        },
        "metallicFactor": 0,
        "roughnessFactor": 0.59999999999999998
      }
    }
  ],
  "meshes": [
    {
      "primitives": [
        {
          "attributes": {
            "NORMAL": 1,
            "POSITION": 0,
            "TEXCOORD_0": 2
          },
          "indices": 3,
          "material": 0,
          "mode": 4
        }
      ]
    },
    {
      "primitives": [
        {
          "attributes": {
            "NORMAL": 5,
            "POSITION": 4,
            "TEXCOORD_0": 6
          },
          "indices": 7,
          "material": 0,
          "mode": 4
        }
      ]
    },
    {
      "primitives": [
        {
          "attributes": {
            "NORMAL": 9,
            "POSITION": 8,
            "TANGENT": 10,
            "TEXCOORD_0": 11
          },
          "indices": 12,
          "material": 0,
          "mode": 4
        }
      ]
    }
  ],
  "nodes": [
    {
      "children": [
        1
      ],
      "name": "RootNode (gltf orientation matrix)",
      "rotation": [
        -0.70710678118654746,
        -0,
        -0,
        0.70710678118654757
      ]
    },
    {
      "children": [
        2
      ],
      "name": "RootNode (model correction matrix)"
    },
    {
      "children": [
        3
      ],
      "matrix": [
        1,
        0,
        0,
        0,
        0,
        1,
        0,
        0,
        0,
        0,
        1,
        0,
        -7711.43994140625,
        -14390.3701171875,
        -3895.72509765625,
        1
      ],
      "name": "skfb_offset"
    },
    {
      "children": [
        4,
        5,
        6
      ],
      "name": ""
    },
    {
      "mesh": 0,
      "name": ""
    },
    {
      "mesh": 1,
      "name": ""
    },
    {
      "mesh": 2,
      "name": ""
    }
  ],
  "samplers": [
    {
      "magFilter": 9729,
      "minFilter": 9987,
      "wrapS": 10497,
      "wrapT": 10497
    }
  ],
  "scene": 0,
  "scenes": [
    {
      "name": "OSG_Scene",
      "nodes": [
        0
      ]
    }
  ],
  "textures": [
    {
      "sampler": 0,
      "source": 0
    }
  ]
}

