{
  "accessors": [
    {
      "bufferView": 2,
      "componentType": 5126,
      "count": 319,
      "max": [
        21.179058074951172,
        31.333890914916992,
        8.5742912292480469
      ],
      "min": [
        -18.49658203125,
        -0.076183557510375977,
        -8.5742912292480469
      ],
      "type": "VEC3"
    },
    {
      "bufferView": 2,
      "byteOffset": 3828,
      "componentType": 5126,
      "count": 319,
      "max": [
        1,
        1,
        1
      ],
      "min": [
        -1,
        -1,
        -1
      ],
      "type": "VEC3"
    },
    {
      "bufferView": 3,
      "componentType": 5126,
      "count": 319,
      "max": [
        1,
        1,
        1,
        1
      ],
      "min": [
        -1,
        -0.98803263902664185,
        -1,
        -1
      ],
      "type": "VEC4"
    },
    {
      "bufferView": 1,
      "componentType": 5126,
      "count": 319,
      "max": [
        1,
        1
      ],
      "min": [
        -0.011430084705352783,
        -5.6193275451660156
      ],
      "type": "VEC2"
    },
    {
      "bufferView": 0,
      "componentType": 5125,
      "count": 615,
      "max": [
        318
      ],
      "min": [
        0
      ],
      "type": "SCALAR"
    },
    {
      "bufferView": 2,
      "byteOffset": 7656,
      "componentType": 5126,
      "count": 116,
      "max": [
        -2.7413029670715332,
        8.1224889755249023,
        25.731792449951172
      ],
      "min": [
        -16.814975738525391,
        2.7265737056732178,
        11.82725715637207
      ],
      "type": "VEC3"
    },
    {
      "bufferView": 2,
      "byteOffset": 9048,
      "componentType": 5126,
      "count": 116,
      "max": [
        1,
        1,
        1
      ],
      "min": [
        -1,
        -1,
        -1
      ],
      "type": "VEC3"
    },
    {
      "bufferView": 3,
      "byteOffset": 5104,
      "componentType": 5126,
      "count": 116,
      "max": [
        1,
        1.0019481777590045e-07,
        1.6229876109719044e-07,
        1
      ],
      "min": [
        -1,
        -1.8141912860869525e-08,
        -1,
        -1
      ],
      "type": "VEC4"
    },
    {
      "bufferView": 1,
      "byteOffset": 2552,
      "componentType": 5126,
      "count": 116,
      "max": [
        1.0014157295227051,
        1.0126242637634277
      ],
      "min": [
        -0.0014156103134155273,
        -0.012624502182006836
      ],
      "type": "VEC2"
    },
    {
      "bufferView": 0,
      "byteOffset": 2460,
      "componentType": 5125,
      "count": 186,
      "max": [
        115
      ],
      "min": [
        0
      ],
      "type": "SCALAR"
    },
    {
      "bufferView": 2,
      "byteOffset": 10440,
      "componentType": 5126,
      "count": 84,
      "max": [
        -2.8288283348083496,
        8.0141334533691406,
        25.774290084838867
      ],
      "min": [
        -16.775026321411133,
        5.0198373794555664,
        12.151947021484375
      ],
      "type": "VEC3"
    },
    {
      "bufferView": 2,
      "byteOffset": 11448,
      "componentType": 5126,
      "count": 84,
      "max": [
        1,
        1,
        1
      ],
      "min": [
        -1,
        -1,
        -1
      ],
      "type": "VEC3"
    },
    {
      "bufferView": 3,
      "byteOffset": 6960,
      "componentType": 5126,
      "count": 84,
      "max": [
        1,
        0,
        0,
        1
      ],
      "min": [
        -1,
        -1.2644667549466249e-05,
        -1,
        -1
      ],
      "type": "VEC4"
    },
    {
      "bufferView": 1,
      "byteOffset": 3480,
      "componentType": 5126,
      "count": 84,
      "max": [
        1,
        1
      ],
      "min": [
        -1.1920928955078125e-07,
        0
      ],
      "type": "VEC2"
    },
    {
      "bufferView": 0,
      "byteOffset": 3204,
      "componentType": 5125,
      "count": 132,
      "max": [
        83
      ],
      "min": [
        0
      ],
      "type": "SCALAR"
    },
    {
      "bufferView": 2,
      "byteOffset": 12456,
      "componentType": 5126,
      "count": 116,
      "max": [
        -2.7413029670715332,
        8.1224889755249023,
        25.731792449951172
      ],
      "min": [
        -16.814975738525391,
        2.7265737056732178,
        11.82725715637207
      ],
      "type": "VEC3"
    },
    {
      "bufferView": 2,
      "byteOffset": 13848,
      "componentType": 5126,
      "count": 116,
      "max": [
        1,
        1,
        1
      ],
      "min": [
        -1,
        -1,
        -1
      ],
      "type": "VEC3"
    },
    {
      "bufferView": 3,
      "byteOffset": 8304,
      "componentType": 5126,
      "count": 116,
      "max": [
        1,
        1.0019481777590045e-07,
        1.6229876109719044e-07,
        1
      ],
      "min": [
        -1,
        -1.8141912860869525e-08,
        -1,
        -1
      ],
      "type": "VEC4"
    },
    {
      "bufferView": 1,
      "byteOffset": 4152,
      "componentType": 5126,
      "count": 116,
      "max": [
        1.0014157295227051,
        1.0126242637634277
      ],
      "min": [
        -0.0014156103134155273,
        -0.012624502182006836
      ],
      "type": "VEC2"
    },
    {
      "bufferView": 0,
      "byteOffset": 3732,
      "componentType": 5125,
      "count": 186,
      "max": [
        115
      ],
      "min": [
        0
      ],
      "type": "SCALAR"
    },
    {
      "bufferView": 2,
      "byteOffset": 15240,
      "componentType": 5126,
      "count": 84,
      "max": [
        -2.8288283348083496,
        8.0141334533691406,
        25.774290084838867
      ],
      "min": [
        -16.775026321411133,
        5.0198373794555664,
        12.151947021484375
      ],
      "type": "VEC3"
    },
    {
      "bufferView": 2,
      "byteOffset": 16248,
      "componentType": 5126,
      "count": 84,
      "max": [
        1,
        1,
        1
      ],
      "min": [
        -1,
        -1,
        -1
      ],
      "type": "VEC3"
    },
    {
      "bufferView": 3,
      "byteOffset": 10160,
      "componentType": 5126,
      "count": 84,
      "max": [
        1,
        0,
        0,
        1
      ],
      "min": [
        -1,
        -1.2644667549466249e-05,
        -1,
        -1
      ],
      "type": "VEC4"
    },
    {
      "bufferView": 1,
      "byteOffset": 5080,
      "componentType": 5126,
      "count": 84,
      "max": [
        1,
        1
      ],
      "min": [
        -1.1920928955078125e-07,
        0
      ],
      "type": "VEC2"
    },
    {
      "bufferView": 0,
      "byteOffset": 4476,
      "componentType": 5125,
      "count": 132,
      "max": [
        83
      ],
      "min": [
        0
      ],
      "type": "SCALAR"
    },
    {
      "bufferView": 2,
      "byteOffset": 17256,
      "componentType": 5126,
      "count": 116,
      "max": [
        -2.7413029670715332,
        8.1224889755249023,
        25.731792449951172
      ],
      "min": [
        -16.814975738525391,
        2.7265737056732178,
        11.82725715637207
      ],
      "type": "VEC3"
    },
    {
      "bufferView": 2,
      "byteOffset": 18648,
      "componentType": 5126,
      "count": 116,
      "max": [
        1,
        1,
        1
      ],
      "min": [
        -1,
        -1,
        -1
      ],
      "type": "VEC3"
    },
    {
      "bufferView": 3,
      "byteOffset": 11504,
      "componentType": 5126,
      "count": 116,
      "max": [
        1,
        1.0019481777590045e-07,
        1.6229876109719044e-07,
        1
      ],
      "min": [
        -1,
        -1.8141912860869525e-08,
        -1,
        -1
      ],
      "type": "VEC4"
    },
    {
      "bufferView": 1,
      "byteOffset": 5752,
      "componentType": 5126,
      "count": 116,
      "max": [
        1.0014157295227051,
        1.0126242637634277
      ],
      "min": [
        -0.0014156103134155273,
        -0.012624502182006836
      ],
      "type": "VEC2"
    },
    {
      "bufferView": 0,
      "byteOffset": 5004,
      "componentType": 5125,
      "count": 186,
      "max": [
        115
      ],
      "min": [
        0
      ],
      "type": "SCALAR"
    },
    {
      "bufferView": 2,
      "byteOffset": 20040,
      "componentType": 5126,
      "count": 84,
      "max": [
        -2.8288283348083496,
        8.0141334533691406,
        25.774290084838867
      ],
      "min": [
        -16.775026321411133,
        5.0198373794555664,
        12.151947021484375
      ],
      "type": "VEC3"
    },
    {
      "bufferView": 2,
      "byteOffset": 21048,
      "componentType": 5126,
      "count": 84,
      "max": [
        1,
        1,
        1
      ],
      "min": [
        -1,
        -1,
        -1
      ],
      "type": "VEC3"
    },
    {
      "bufferView": 3,
      "byteOffset": 13360,
      "componentType": 5126,
      "count": 84,
      "max": [
        1,
        0,
        0,
        1
      ],
      "min": [
        -1,
        -1.2644667549466249e-05,
        -1,
        -1
      ],
      "type": "VEC4"
    },
    {
      "bufferView": 1,
      "byteOffset": 6680,
      "componentType": 5126,
      "count": 84,
      "max": [
        1,
        1
      ],
      "min": [
        -1.1920928955078125e-07,
        0
      ],
      "type": "VEC2"
    },
    {
      "bufferView": 0,
      "byteOffset": 5748,
      "componentType": 5125,
      "count": 132,
      "max": [
        83
      ],
      "min": [
        0
      ],
      "type": "SCALAR"
    },
    {
      "bufferView": 2,
      "byteOffset": 22056,
      "componentType": 5126,
      "count": 116,
      "max": [
        -2.7413029670715332,
        8.1224889755249023,
        25.731792449951172
      ],
      "min": [
        -16.814975738525391,
        2.7265737056732178,
        11.82725715637207
      ],
      "type": "VEC3"
    },
    {
      "bufferView": 2,
      "byteOffset": 23448,
      "componentType": 5126,
      "count": 116,
      "max": [
        1,
        1,
        1
      ],
      "min": [
        -1,
        -1,
        -1
      ],
      "type": "VEC3"
    },
    {
      "bufferView": 3,
      "byteOffset": 14704,
      "componentType": 5126,
      "count": 116,
      "max": [
        1,
        1.0019481777590045e-07,
        1.6229876109719044e-07,
        1
      ],
      "min": [
        -1,
        -1.8141912860869525e-08,
        -1,
        -1
      ],
      "type": "VEC4"
    },
    {
      "bufferView": 1,
      "byteOffset": 7352,
      "componentType": 5126,
      "count": 116,
      "max": [
        1.0014157295227051,
        1.0126242637634277
      ],
      "min": [
        -0.0014156103134155273,
        -0.012624502182006836
      ],
      "type": "VEC2"
    },
    {
      "bufferView": 0,
      "byteOffset": 6276,
      "componentType": 5125,
      "count": 186,
      "max": [
        115
      ],
      "min": [
        0
      ],
      "type": "SCALAR"
    },
    {
      "bufferView": 2,
      "byteOffset": 24840,
      "componentType": 5126,
      "count": 84,
      "max": [
        -2.8288283348083496,
        8.0141334533691406,
        25.774290084838867
      ],
      "min": [
        -16.775026321411133,
        5.0198373794555664,
        12.151947021484375
      ],
      "type": "VEC3"
    },
    {
      "bufferView": 2,
      "byteOffset": 25848,
      "componentType": 5126,
      "count": 84,
      "max": [
        1,
        1,
        1
      ],
      "min": [
        -1,
        -1,
        -1
      ],
      "type": "VEC3"
    },
    {
      "bufferView": 3,
      "byteOffset": 16560,
      "componentType": 5126,
      "count": 84,
      "max": [
        1,
        0,
        0,
        1
      ],
      "min": [
        -1,
        -1.2644667549466249e-05,
        -1,
        -1
      ],
      "type": "VEC4"
    },
    {
      "bufferView": 1,
      "byteOffset": 8280,
      "componentType": 5126,
      "count": 84,
      "max": [
        1,
        1
      ],
      "min": [
        -1.1920928955078125e-07,
        0
      ],
      "type": "VEC2"
    },
    {
      "bufferView": 0,
      "byteOffset": 7020,
      "componentType": 5125,
      "count": 132,
      "max": [
        83
      ],
      "min": [
        0
      ],
      "type": "SCALAR"
    }
  ],
  "asset": {
    "extras": {
      "author": "RYKO197 (https://sketchfab.com/RYKO197)",
      "license": "CC-BY-NC-4.0 (http://creativecommons.org/licenses/by-nc/4.0/)",
      "source": "https://sketchfab.com/models/159e6d46373d44d4b9a5fc97eee3e263",
      "title": "Desk"
    },
    "generator": "Sketchfab-3.20.7",
    "version": "2.0"
  },
  "bufferViews": [
    {
      "buffer": 0,
      "byteLength": 7548,
      "byteOffset": 0,
      "name": "floatBufferViews",
      "target": 34963
    },
    {
      "buffer": 0,
      "byteLength": 8952,
      "byteOffset": 7548,
      "byteStride": 8,
      "name": "floatBufferViews",
      "target": 34962
    },
    {
      "buffer": 0,
      "byteLength": 26856,
      "byteOffset": 16500,
      "byteStride": 12,
      "name": "floatBufferViews",
      "target": 34962
    },
    {
      "buffer": 0,
      "byteLength": 17904,
      "byteOffset": 43356,
      "byteStride": 16,
      "name": "floatBufferViews",
      "target": 34962
    }
  ],
  "buffers": [
    {
      "byteLength": 61260,
      "uri": "scene.bin"
    }
  ],
  "images": [
    {
      "uri": "textures/lambert2_baseColor.jpeg"
    },
    {
      "uri": "textures/blinn1_baseColor.jpeg"
    }
  ],
  "materials": [
    {
      "doubleSided": true,
      "emissiveFactor": [
        0,
        0,
        0
      ],
      "name": "lambert2",
      "pbrMetallicRoughness": {
        "baseColorFactor": [
          1,
          1,
          1,
          1
        ],
        "baseColorTexture": {
          "index": 0,
          "texCoord": 0
        },
        "metallicFactor": 0,
        "roughnessFactor": 0.59999999999999998
      }
    },
    {
      "doubleSided": true,
      "emissiveFactor": [
        0,
        0,
        0
      ],
      "name": "blinn1",
      "pbrMetallicRoughness": {
        "baseColorFactor": [
          1,
          1,
          1,
          1
        ],
        "baseColorTexture": {
          "index": 1,
          "texCoord": 0
        },
        "metallicFactor": 1,
        "roughnessFactor": 0.82755335369999994
      }
    }
  ],
  "meshes": [
    {
      "name": "0",
      "primitives": [
        {
          "attributes": {
            "NORMAL": 1,
            "POSITION": 0,
            "TANGENT": 2,
            "TEXCOORD_0": 3
          },
          "indices": 4,
          "material": 0,
          "mode": 4
        }
      ]
    },
    {
      "name": "pPlane2_lambert2_0",
      "primitives": [
        {
          "attributes": {
            "NORMAL": 6,
            "POSITION": 5,
            "TANGENT": 7,
            "TEXCOORD_0": 8
          },
          "indices": 9,
          "material": 0,
          "mode": 4
        }
      ]
    },
    {
      "name": "pPlane2_blinn1_0",
      "primitives": [
        {
          "attributes": {
            "NORMAL": 11,
            "POSITION": 10,
            "TANGENT": 12,
            "TEXCOORD_0": 13
          },
          "indices": 14,
          "material": 1,
          "mode": 4
        }
      ]
    },
    {
      "name": "pPlane3_lambert2_0",
      "primitives": [
        {
          "attributes": {
            "NORMAL": 16,
            "POSITION": 15,
            "TANGENT": 17,
            "TEXCOORD_0": 18
          },
          "indices": 19,
          "material": 0,
          "mode": 4
        }
      ]
    },
    {
      "name": "pPlane3_blinn1_0",
      "primitives": [
        {
          "attributes": {
            "NORMAL": 21,
            "POSITION": 20,
            "TANGENT": 22,
            "TEXCOORD_0": 23
          },
          "indices": 24,
          "material": 1,
          "mode": 4
        }
      ]
    },
    {
      "name": "pPlane4_lambert2_0",
      "primitives": [
        {
          "attributes": {
            "NORMAL": 26,
            "POSITION": 25,
            "TANGENT": 27,
            "TEXCOORD_0": 28
          },
          "indices": 29,
          "material": 0,
          "mode": 4
        }
      ]
    },
    {
      "name": "pPlane4_blinn1_0",
      "primitives": [
        {
          "attributes": {
            "NORMAL": 31,
            "POSITION": 30,
            "TANGENT": 32,
            "TEXCOORD_0": 33
          },
          "indices": 34,
          "material": 1,
          "mode": 4
        }
      ]
    },
    {
      "name": "pPlane5_lambert2_0",
      "primitives": [
        {
          "attributes": {
            "NORMAL": 36,
            "POSITION": 35,
            "TANGENT": 37,
            "TEXCOORD_0": 38
          },
          "indices": 39,
          "material": 0,
          "mode": 4
        }
      ]
    },
    {
      "name": "pPlane5_blinn1_0",
      "primitives": [
        {
          "attributes": {
            "NORMAL": 41,
            "POSITION": 40,
            "TANGENT": 42,
            "TEXCOORD_0": 43
          },
          "indices": 44,
          "material": 1,
          "mode": 4
        }
      ]
    }
  ],
  "nodes": [
    {
      "children": [
        1
      ],
      "name": "RootNode (gltf orientation matrix)",
      "rotation": [
        -0.70710678118654746,
        -0,
        -0,
        0.70710678118654757
      ]
    },
    {
      "children": [
        2
      ],
      "name": "RootNode (model correction matrix)"
    },
    {
      "children": [
        3
      ],
      "matrix": [
        1,
        0,
        0,
        0,
        0,
        0,
        1,
        0,
        0,
        -1,
        0,
        0,
        0,
        0,
        0,
        1
      ],
      "name": "c8134edb663943eeb4b2d861ff4632e2.fbx"
    },
    {
      "children": [
        4,
        6,
        9,
        12,
        15
      ],
      "name": "RootNode"
    },
    {
      "children": [
        5
      ],
      "name": "pCube5"
    },
    {
      "mesh": 0,
      "name": "0"
    },
    {
      "children": [
        7,
        8
      ],
      "matrix": [
        1,
        0,
        0,
        0,
        0,
        1,
        0,
        0,
        0,
        0,
        1,
        0,
        0,
        0,
        -18.379377365112305,
        1
      ],
      "name": "pPlane2"
    },
    {
      "mesh": 1,
      "name": "pPlane2_lambert2_0"
    },
    {
      "mesh": 2,
      "name": "pPlane2_blinn1_0"
    },
    {
      "children": [
        10,
        11
      ],
      "matrix": [
        1,
        0,
        0,
        0,
        0,
        1,
        0,
        0,
        0,
        0,
        1,
        0,
        0,
        5.4802122116088867,
        -18.379377365112305,
        1
      ],
      "name": "pPlane3"
    },
    {
      "mesh": 3,
      "name": "pPlane3_lambert2_0"
    },
    {
      "mesh": 4,
      "name": "pPlane3_blinn1_0"
    },
    {
      "children": [
        13,
        14
      ],
      "matrix": [
        1,
        0,
        0,
        0,
        0,
        1,
        0,
        0,
        0,
        0,
        1,
        0,
        0,
        11.012948989868164,
        -18.379377365112305,
        1
      ],
      "name": "pPlane4"
    },
    {
      "mesh": 5,
      "name": "pPlane4_lambert2_0"
    },
    {
      "mesh": 6,
      "name": "pPlane4_blinn1_0"
    },
    {
      "children": [
        16,
        17
      ],
      "matrix": [
        1,
        0,
        0,
        0,
        0,
        1,
        0,
        0,
        0,
        0,
        1,
        0,
        0,
        16.538122177124023,
        -18.379377365112305,
        1
      ],
      "name": "pPlane5"
    },
    {
      "mesh": 7,
      "name": "pPlane5_lambert2_0"
    },
    {
      "mesh": 8,
      "name": "pPlane5_blinn1_0"
    }
  ],
  "samplers": [
    {
      "magFilter": 9729,
      "minFilter": 9987,
      "wrapS": 10497,
      "wrapT": 10497
    }
  ],
  "scene": 0,
  "scenes": [
    {
      "name": "OSG_Scene",
      "nodes": [
        0
      ]
    }
  ],
  "textures": [
    {
      "sampler": 0,
      "source": 0
    },
    {
      "sampler": 0,
      "source": 1
    }
  ]
}

